<svg width="251" height="147" viewBox="0 0 251 147" xmlns="http://www.w3.org/2000/svg"><g fill="none" fill-rule="evenodd"><path d="M125.342 133.086c-66.404 0-120.65-26.562-124.293-60.022a33.621 33.621 0 0 0-.21 3.589c0 35.127 55.743 63.607 124.503 63.607 68.76 0 124.5-28.48 124.5-63.607 0-1.206-.08-2.4-.207-3.589-3.644 33.46-57.893 60.022-124.293 60.022M203.72 69.49l-.447-.035c-17.497-12.295-45.911-20.32-77.942-20.32-32.065 0-60.445 8.025-77.942 20.355 0 0-2.066-3.651.999-5.786 3.03-2.17 23.145-19.391 77.184-19.391 54.005 0 74.119 17.22 77.184 19.39 3.034 2.136.964 5.787.964 5.787" fill="#EE4136"/><path d="M242.881 97.766s-.447-2.135-1.928-5.2c3-5.34 10.677-20.769 8.166-33.168 2.476 10.023 1.202 39.091-6.238 38.368m-235.021 0s.447-2.135 1.928-5.2C6.792 87.225-.888 71.796 1.626 59.397-.854 69.421.42 98.489 7.86 97.766m152.051 38.609c0 .517-.103 1-.24 1.412-.93 2.962-4.547 4.306-7.337 5.339-9.092 3.272-27.002 3.065-27.002 3.065s-17.875.207-26.968-3.065c-1.756-.62-3.479-1.378-5.028-2.411-1.068-.723-2.136-1.653-2.411-2.928-.035-.137-.07-.24-.07-.378-.034-.207-.034-.448-.068-.655v-.585c0-.586-.035-1.171-.035-1.757a48.17 48.17 0 0 1 .035-3.857c10.952 1.653 22.56 2.514 34.545 2.514 11.951 0 23.524-.861 34.476-2.48.07 1.894.138 3.823.103 5.786" fill="#E5E6E7"/><path d="M125.342 89.815c-32.072 0-60.466-8.018-77.966-20.338 17.5-12.32 45.894-20.338 77.966-20.338 32.072 0 60.466 8.018 77.962 20.338-17.496 12.32-45.89 20.338-77.962 20.338m0-83.948C56.582 5.867.838 34.347.838 69.477c0 35.127 55.744 63.607 124.504 63.607s124.5-28.48 124.5-63.607c0-35.13-55.74-63.61-124.5-63.61" fill="#F05A28"/><path d="M7.858 97.754s6.1-28.872 45.143-24.687l3.555 1.956s7.653-1.182-9.847-28.773C37.15 31.182 7.083 49.536 2.56 56.9c-3.623 5.9-2.938 41.657 5.297 40.854m235.024.012s-.447-2.135-1.928-5.2c-3.858-8.094-14.81-22.56-43.225-19.495l-3.547 1.964s-7.646-1.206 9.85-28.794c9.575-15.05 39.643 3.307 44.154 10.643.345.585.655 1.412.934 2.514 2.476 10.023 1.202 39.091-6.238 38.368m-85.395 13.856c-1.374-7.767-5.386-14.782-11.207-20.073a40.184 40.184 0 0 0-5.576-4.24c-1.564-.984-3.393-2.259-5.283-2.252-3.358 0-6.717.014-10.078.014h-4.508c-1.165 0-2.332-.014-3.5 0-1.877.017-3.375.01-5.042.895-.854.455-1.691.947-2.507 1.468a39.896 39.896 0 0 0-6.613 5.283c-5.173 5.135-8.704 11.714-9.978 18.905-.861 4.877-1.615 9.775-2.084 14.707-.258 2.672-.475 5.383-.365 8.073.02.585.028 1.17.045 1.76.003.196.01.392.014.592.007.22.01.441.034.658.166 1.495 1.333 2.507 2.504 3.3 1.536 1.043 3.279 1.777 5.018 2.404 9.096 3.265 26.982 3.086 26.982 3.086s17.882.179 26.978-3.086c3.22-1.154 7.522-2.783 7.574-6.748.093-6.671-.548-13.198-1.58-19.797-.245-1.58-.828-3.358-.828-4.949M98.875 28.814c1.13 6.382 4.426 12.14 9.206 16.49a33.03 33.03 0 0 0 4.58 3.482c1.289.81 2.79 1.857 4.344 1.853 2.759 0 5.518-.01 8.28-.01h3.702c.958 0 1.919.01 2.876 0 1.54-.017 2.773-.01 4.14-.737a30.116 30.116 0 0 0 2.063-1.205 32.812 32.812 0 0 0 5.432-4.344c4.25-4.219 7.15-9.623 8.197-15.53.71-4.005 1.33-8.031 1.715-12.081.21-2.198.386-4.423.3-6.634-.021-.482-.028-.96-.038-1.447l-.014-.485a7.105 7.105 0 0 0-.028-.544c-.137-1.223-1.095-2.057-2.056-2.707-1.26-.858-2.693-1.46-4.123-1.974C139.978.255 125.285.403 125.285.403S110.588.255 103.118 2.94c-2.642.947-6.179 2.284-6.224 5.542-.075 5.48.452 10.842 1.302 16.263.2 1.299.679 2.762.679 4.068" fill="#FEFEFE"/><path d="M142.828 44.967a30.994 30.994 0 0 1-4.753 3.72c-.447.275-.93.55-1.377.791-.245.173-.448.276-.69.414-1.377.723-2.617.723-4.132.723-.964.034-1.929 0-2.897 0h-3.681c-2.79 0-5.546.034-8.3.034-1.103 0-2.17-.55-3.17-1.136a34.884 34.884 0 0 1-1.17-.723 34.85 34.85 0 0 1-4.581-3.48c-.104-.102-.207-.206-.31-.309 5.476-.448 11.4-.689 17.806-.689 6.2 0 11.917.241 17.255.655" fill="#E5E6E7"/></g></svg>