<svg width="254" height="129" viewBox="0 0 254 129" xmlns="http://www.w3.org/2000/svg"><path d="M126.994 87.237c-5.57 0-10.812-5.215-16.12-5.676-5.579-.49-11.661 3.71-16.869 2.752-5.552-1.02-9.705-7.126-14.73-8.628-5.473-1.629-12.344 1.126-17.063-1.009-5.283-2.39-6.537-7.34-10.694-10.267 4.16-2.928 5.418-7.88 10.708-10.27 4.715-2.133 11.58.623 17.052-1.006 5.022-1.502 9.175-7.608 14.724-8.628 5.207-.957 11.29 3.241 16.87 2.755 5.31-.465 10.552-5.679 16.122-5.679 5.565 0 10.81 5.214 16.118 5.676 5.58.489 11.659-3.71 16.87-2.752 5.549 1.02 9.706 7.126 14.73 8.628 5.474 1.629 12.341-1.127 17.063 1.012 5.284 2.387 6.537 7.336 10.69 10.264-4.156 2.928-5.413 7.88-10.704 10.27-4.715 2.136-11.582-.623-17.048 1.006-5.025 1.502-9.182 7.608-14.731 8.628-5.208.957-11.287-3.241-16.866-2.752-5.311.461-10.553 5.676-16.122 5.676m0-83.948c-10.436 0-20.886-4.302-30.574-3.066-10.498 1.34-19.477 8.225-28.728 10.829-10.422 2.93-21.747 1.99-30.075 6.268-9.995 5.129-15.32 15.03-21.44 21.65C8.573 47.198 0 54.707 0 64.41c0 9.706 8.573 17.214 16.18 25.442 6.124 6.623 11.45 16.525 21.444 21.65 8.328 4.274 19.65 3.338 30.068 6.265 9.25 2.604 18.23 9.492 28.724 10.832 9.689 1.233 20.142-3.072 30.578-3.072s20.885 4.305 30.574 3.072c10.497-1.34 19.473-8.228 28.727-10.832 10.423-2.93 21.744-1.994 30.075-6.268 9.995-5.129 15.316-15.027 21.44-21.65 7.605-8.232 16.174-15.737 16.174-25.439s-8.57-17.21-16.177-25.442c-6.124-6.623-11.449-16.522-21.444-21.65-8.328-4.274-19.649-3.334-30.068-6.265-9.254-2.604-18.23-9.489-28.724-10.829-9.692-1.236-20.141 3.066-30.577 3.066" fill="#A6A8AB" fill-rule="evenodd"/></svg>